<?xml version="1.0" encoding="UTF-8" standalone="no"?>
<!-- Created with Inkscape (http://www.inkscape.org/) -->

<svg
   xmlns:dc="http://purl.org/dc/elements/1.1/"
   xmlns:cc="http://creativecommons.org/ns#"
   xmlns:rdf="http://www.w3.org/1999/02/22-rdf-syntax-ns#"
   xmlns:svg="http://www.w3.org/2000/svg"
   xmlns="http://www.w3.org/2000/svg"
   xmlns:sodipodi="http://sodipodi.sourceforge.net/DTD/sodipodi-0.dtd"
   xmlns:inkscape="http://www.inkscape.org/namespaces/inkscape"
   width="967.57697"
   height="453.41571"
   viewBox="0 0 256.00473 119.96624"
   version="1.1"
   id="svg8"
   inkscape:version="0.92.4 (5da689c313, 2019-01-14)"
   sodipodi:docname="Tempo_Scan.svg">
  <defs
     id="defs2" />
  <sodipodi:namedview
     id="base"
     pagecolor="#ffffff"
     bordercolor="#666666"
     borderopacity="1.0"
     inkscape:pageopacity="0.0"
     inkscape:pageshadow="2"
     inkscape:zoom="0.24748737"
     inkscape:cx="791.46001"
     inkscape:cy="64.942511"
     inkscape:document-units="mm"
     inkscape:current-layer="layer1"
     showgrid="false"
     showguides="false"
     inkscape:guide-bbox="true"
     inkscape:window-width="1366"
     inkscape:window-height="745"
     inkscape:window-x="-8"
     inkscape:window-y="-8"
     inkscape:window-maximized="1"
     fit-margin-top="0"
     fit-margin-left="0"
     fit-margin-right="0"
     fit-margin-bottom="0"
     units="px">
    <sodipodi:guide
       position="149.20921,117.85609"
       orientation="1,0"
       id="guide840"
       inkscape:locked="false" />
    <sodipodi:guide
       position="155.15595,102.53585"
       orientation="0,1"
       id="guide844"
       inkscape:locked="false" />
    <sodipodi:guide
       position="155.02232,103.79103"
       orientation="1,0"
       id="guide846"
       inkscape:locked="false" />
    <sodipodi:guide
       position="149.20921,117.85609"
       orientation="0,1"
       id="guide848"
       inkscape:locked="false" />
    <sodipodi:guide
       position="137.18208,32.23228"
       orientation="0,1"
       id="guide850"
       inkscape:locked="false" />
    <sodipodi:guide
       position="137.41594,140.70763"
       orientation="1,0"
       id="guide854"
       inkscape:locked="false" />
    <sodipodi:guide
       position="143.73018,117.8561"
       orientation="1,0"
       id="guide858"
       inkscape:locked="false" />
    <sodipodi:guide
       position="143.73018,128.6137"
       orientation="0,1"
       id="guide860"
       inkscape:locked="false" />
    <sodipodi:guide
       position="137.51617,142.77898"
       orientation="0,1"
       id="guide862"
       inkscape:locked="false" />
    <sodipodi:guide
       position="141.38615,164.76018"
       orientation="0,1"
       id="guide868"
       inkscape:locked="false" />
    <sodipodi:guide
       position="155.15595,152.80159"
       orientation="0,1"
       id="guide870"
       inkscape:locked="false" />
    <sodipodi:guide
       position="130.70832,32.32677"
       orientation="1,0"
       id="guide872"
       inkscape:locked="false" />
    <sodipodi:guide
       position="125.22767,161.54738"
       orientation="1,0"
       id="guide876"
       inkscape:locked="false" />
  </sodipodi:namedview>
  <metadata
     id="metadata5">
    <rdf:RDF>
      <cc:Work
         rdf:about="">
        <dc:format>image/svg+xml</dc:format>
        <dc:type
           rdf:resource="http://purl.org/dc/dcmitype/StillImage" />
        <dc:title></dc:title>
      </cc:Work>
    </rdf:RDF>
  </metadata>
  <g
     inkscape:label="Layer 1"
     inkscape:groupmode="layer"
     id="layer1"
     transform="translate(128.62945,-18.199071)">
    <g
       aria-label="TEMPO  SCAN"
       transform="scale(0.97050396,1.0303925)"
       style="font-style:normal;font-variant:normal;font-weight:bold;font-stretch:normal;font-size:76.22563934px;line-height:1.25;font-family:Futura;-inkscape-font-specification:'Futura Bold';letter-spacing:-6.04644108px;word-spacing:0px;fill:#8e6702;fill-opacity:1;stroke:none;stroke-width:0.39700854"
       id="text817" />
    <g
       id="g959"
       style="fill:#9a802e;fill-opacity:1"
       transform="matrix(0.61028689,0,0,0.61028689,3.0394239,34.958738)">
      <path
         id="path939"
         d="M -8.6934527,101.59764 H -15.041189 V -13.293324 h -30.599474 l -13.826554,-14.168624 h 50.7737643 z"
         style="fill:#9a802e;fill-opacity:1;stroke:none;stroke-width:0.26021966px;stroke-linecap:butt;stroke-linejoin:miter;stroke-opacity:1"
         inkscape:connector-curvature="0"
         sodipodi:nodetypes="ccccccc" />
      <path
         id="path937"
         d="M -20.853691,-2.681153 -20.953917,101.59764 H -27.19597 V 11.837463 H -56.261003 L -70.640121,-2.7315058 Z"
         style="fill:#9a802e;fill-opacity:1;stroke:none;stroke-width:0.26021966px;stroke-linecap:butt;stroke-linejoin:miter;stroke-opacity:1"
         inkscape:connector-curvature="0"
         sodipodi:nodetypes="ccccccc" />
      <path
         id="path935"
         d="m -32.674996,21.376079 -0.100226,80.221561 h -5.712886 V 36.195149 h -28.932741 l -13.897199,-14.81907 z"
         style="fill:#9a802e;fill-opacity:1;stroke:none;stroke-width:0.26021966px;stroke-linecap:butt;stroke-linejoin:miter;stroke-opacity:1"
         inkscape:connector-curvature="0"
         sodipodi:nodetypes="ccccccc" />
      <path
         id="path933"
         d="M -3.4017857,101.59764 H 2.9459476 V -13.293324 H 33.545421 L 46.504896,-27.461948 H -3.4017857 Z"
         style="fill:#9a802e;fill-opacity:1;stroke:none;stroke-width:0.26021966px;stroke-linecap:butt;stroke-linejoin:miter;stroke-opacity:1"
         inkscape:connector-curvature="0"
         sodipodi:nodetypes="ccccccc" />
      <path
         id="path931"
         d="M 8.7584496,-2.681153 8.8586756,101.59764 H 15.100728 V 11.837463 H 44.165761 L 58.54488,-2.7315058 Z"
         style="fill:#9a802e;fill-opacity:1;stroke:none;stroke-width:0.26021966px;stroke-linecap:butt;stroke-linejoin:miter;stroke-opacity:1"
         inkscape:connector-curvature="0"
         sodipodi:nodetypes="ccccccc" />
      <path
         id="path929"
         d="m 20.579754,21.376079 0.100226,80.221561 h 5.712886 V 36.195149 h 28.932742 l 13.897199,-14.81907 z"
         style="fill:#9a802e;fill-opacity:1;stroke:none;stroke-width:0.26021966px;stroke-linecap:butt;stroke-linejoin:miter;stroke-opacity:1"
         inkscape:connector-curvature="0"
         sodipodi:nodetypes="ccccccc" />
      <path
         id="path927"
         d="m 196.47577,119.06875 v 50.04282 h -1.46584 l -31.56915,-50.27011 h -0.14302 v 47.16374 h 8.11575 v 1.93201 h -17.05379 v -1.93201 h 7.11468 v -46.93645 h -7.6152 v -1.93201 h 18.3051 l 22.3451,35.60958 h 0.14302 v -33.67757 h -7.93698 v -1.93201 h 17.01802 v 1.93201 z"
         style="fill:#9a802e;fill-opacity:1;stroke:none;stroke-width:0.26161462px;stroke-linecap:butt;stroke-linejoin:miter;stroke-opacity:1"
         inkscape:connector-curvature="0" />
      <path
         d="m 121.50844,150.17031 h 14.01431 l -6.80901,-20.34293 h -0.1441 z m 14.66279,1.93201 h -15.34729 l -4.93563,13.90288 h 8.93457 v 1.93201 h -17.50889 v -1.93201 h 6.6649 l 17.61697,-50.04281 h 1.11682 l 16.89644,50.04281 h 6.48476 v 1.93201 h -23.02093 v -1.93201 h 7.81774 z"
         style="fill:#9a802e;fill-opacity:1;stroke:none;stroke-width:0.26261643px;stroke-linecap:butt;stroke-linejoin:miter;stroke-opacity:1"
         id="path923"
         inkscape:connector-curvature="0" />
      <path
         id="path921"
         d="m 108.08937,116.565 v 14.98983 h -1.66704 q -2.71374,-13.67164 -14.03404,-13.67164 -6.086592,0 -8.877893,4.63254 -2.791303,4.63253 -2.791303,19.50938 0,12.24045 1.20181,16.64702 1.201811,4.40655 4.148186,6.32736 2.985144,1.88315 6.551808,1.88315 4.652172,0 8.722812,-3.38967 4.10944,-3.42731 6.35798,-10.9599 h 1.82209 l -0.62027,15.40414 h -1.58952 q -0.89166,-2.41044 -2.79128,-4.0676 -6.125364,4.93384 -12.599637,4.93384 -8.218836,0 -15.003252,-7.57025 -6.784418,-7.57025 -6.784418,-18.53015 0,-11.18588 6.668114,-18.94445 6.668111,-7.79621 15.4297,-7.79621 6.745648,0 11.901793,4.70786 1.51197,-2.33511 2.28732,-4.10525 z"
         style="fill:#9a802e;fill-opacity:1;stroke:none;stroke-width:0.27163485px;stroke-linecap:butt;stroke-linejoin:miter;stroke-opacity:1"
         inkscape:connector-curvature="0" />
      <path
         id="path919"
         d="m 64.733916,116.56851 0.199668,13.18311 h -1.564063 q -3.327793,-11.85723 -11.747108,-11.85723 -4.65891,0 -7.254589,2.95484 -2.5624,2.91695 -2.5624,6.0612 0,2.91695 2.129787,4.96262 2.163065,2.04564 7.85359,3.18213 5.690526,1.09859 8.652263,2.72754 2.995012,1.59107 5.024966,5.34143 2.063232,3.75037 2.063232,8.59933 0,7.46286 -4.292853,12.42548 -4.259575,4.96261 -10.58238,4.96261 -5.15808,0 -10.28288,-4.35649 l -3.128125,3.18213 h -1.164727 v -14.20594 h 1.43095 q 1.963397,6.7052 5.490859,10.07675 3.527459,3.37154 7.720478,3.37154 4.15974,0 7.620645,-3.10638 3.494183,-3.14425 3.494183,-7.91744 0,-4.01554 -2.429289,-6.74309 -2.396011,-2.76543 -7.820313,-3.78826 -5.391023,-1.0607 -8.286203,-2.42447 -2.89518,-1.40166 -4.958411,-4.81109 -2.063232,-3.4473 -2.063232,-7.61438 0,-5.75814 3.594016,-10.26617 3.594016,-4.54589 9.750433,-4.54589 5.158078,0 9.617321,3.71247 1.231283,-1.32588 2.129787,-3.10635 z"
         style="fill:#9a802e;fill-opacity:1;stroke:none;stroke-width:0.25239977px;stroke-linecap:butt;stroke-linejoin:miter;stroke-opacity:1"
         inkscape:connector-curvature="0" />
      <path
         d="m -8.4061802,117.89439 q -3.9327388,0 -7.0789288,1.93201 -3.110439,1.89413 -4.254508,6.62944 -1.108318,4.73533 -1.108318,16.51679 0,8.14474 0.643539,12.9937 0.643539,4.84896 3.253447,8.0311 2.645662,3.18213 8.2587503,3.18213 3.4322093,0 6.8644175,-1.93201 3.4679603,-1.93201 4.5047732,-7.57651 1.072565,-5.68238 1.072565,-17.42596 0,-10.64499 -1.3228302,-14.69842 -1.2870781,-4.05343 -4.1830037,-5.83391 -2.8601734,-1.81836 -6.6499033,-1.81836 z m -0.1430088,51.21718 q -9.295564,0 -15.802458,-8.2584 -6.471142,-8.25839 -6.471142,-17.65325 0,-11.28899 6.792911,-19.24432 6.828664,-7.99321 15.8382105,-7.99321 8.47326429,0 15.1946719,8.10685 6.7214066,8.10686 6.7214066,18.41091 0,10.60712 -6.7571587,18.6382 -6.72140765,7.99322 -15.5164413,7.99322 z"
         style="fill:#9a802e;fill-opacity:1;stroke:none;stroke-width:0.26161462px;stroke-linecap:butt;stroke-linejoin:miter;stroke-opacity:1"
         id="path915"
         inkscape:connector-curvature="0" />
      <path
         d="m -55.891116,119.06875 v 23.6387 h 4.417558 q 3.458706,0 5.753097,-0.644 2.29439,-0.64401 3.938133,-3.40943 1.677986,-2.76542 1.677986,-8.56146 0,-5.11414 -1.47252,-7.50073 -1.438273,-2.42448 -3.424461,-2.95485 -1.986189,-0.56823 -4.931227,-0.56823 z m 0,25.60859 v 21.32786 h 7.431084 v 1.93201 h -22.875409 v -1.93201 h 7.294105 v -46.93645 h -7.294105 v -1.93201 h 23.663038 q 8.013241,0 12.054106,3.93979 4.075111,3.93978 4.075111,9.69792 0,5.90967 -4.109354,9.92522 -4.075112,3.97767 -13.595117,3.97767 z"
         style="fill:#9a802e;fill-opacity:1;stroke:none;stroke-width:0.25603953px;stroke-linecap:butt;stroke-linejoin:miter;stroke-opacity:1"
         id="path911"
         inkscape:connector-curvature="0" />
      <path
         id="path909"
         d="m -130.24234,117.13674 h 17.8307 l 10.6391,35.91264 h 0.14829 l 10.713249,-35.91264 h 17.385856 v 1.93201 h -7.376943 v 46.93645 h 7.376943 v 1.93201 h -23.391219 v -1.93201 h 7.599372 v -47.80774 h -0.14828 l -14.790968,49.73975 h -1.70522 l -14.79095,-49.73975 h -0.14827 v 47.80774 h 7.59935 v 1.93201 h -16.94101 v -1.93201 h 7.45109 v -46.93645 h -7.45109 z"
         style="fill:#9a802e;fill-opacity:1;stroke:none;stroke-width:0.2663928px;stroke-linecap:butt;stroke-linejoin:miter;stroke-opacity:1"
         inkscape:connector-curvature="0" />
      <path
         id="path907"
         d="m -156.47509,119.06875 v 21.78245 h 3.88084 q 2.05269,0 3.4639,-0.45458 1.4433,-0.49248 2.56586,-2.57601 1.15464,-2.08355 1.31501,-6.51581 h 1.6678 v 21.51728 h -1.6678 q -0.2566,-6.13697 -2.02061,-8.06899 -1.73196,-1.96988 -5.32416,-1.96988 h -3.88084 v 23.22199 h 8.75596 q 7.44097,0 10.29548,-3.6746 2.8866,-3.71249 3.43183,-11.40265 h 1.63574 l -0.41696,17.00926 h -38.13495 v -1.93201 h 6.83156 v -46.93645 h -6.83156 v -1.93201 h 36.56338 l 0.73768,13.56194 h -1.63573 q -0.83391,-6.17485 -3.43183,-8.90239 -2.59794,-2.72754 -8.65975,-2.72754 z"
         style="fill:#9a802e;fill-opacity:1;stroke:none;stroke-width:0.2477887px;stroke-linecap:butt;stroke-linejoin:miter;stroke-opacity:1"
         inkscape:connector-curvature="0" />
      <path
         id="path908"
         d="m -214.49783,117.13674 h 40.86474 l 1.25132,17.27444 h -1.82336 q -1.68035,-8.67511 -4.46902,-12.00877 -2.75292,-3.33366 -7.25768,-3.33366 h -3.897 v 46.93645 h 8.58052 v 1.93201 h -25.6343 v -1.93201 h 8.58052 v -46.93645 h -3.89699 q -4.50476,0 -7.29344,3.33366 -2.75291,3.33366 -4.43326,12.00877 h -1.82337 z"
         style="fill:#9a802e;fill-opacity:1;stroke:none;stroke-width:0.26161462px;stroke-linecap:butt;stroke-linejoin:miter;stroke-opacity:1"
         inkscape:connector-curvature="0" />
    </g>
    <g
       aria-label="GRUP TEMPO"
       style="font-style:normal;font-variant:normal;font-weight:bold;font-stretch:normal;font-size:68.42648315px;line-height:1.25;font-family:Futura;-inkscape-font-specification:'Futura Bold';letter-spacing:0.38133514px;word-spacing:0px;fill:#000000;fill-opacity:1;stroke:none;stroke-width:0.35638794"
       id="text931"
       transform="matrix(0.83188388,0,0,0.83188388,106.33154,34.613921)" />
  </g>
</svg>
