<?xml version="1.0" encoding="UTF-8" standalone="no"?>
<!-- Created with Inkscape (http://www.inkscape.org/) -->

<svg
   version="1.0"
   width="744.09448"
   height="310.03937"
   id="svg3454"
   sodipodi:docname="Dräger_Logo.svg"
   inkscape:version="1.1 (c68e22c387, 2021-05-23)"
   xmlns:inkscape="http://www.inkscape.org/namespaces/inkscape"
   xmlns:sodipodi="http://sodipodi.sourceforge.net/DTD/sodipodi-0.dtd"
   xmlns="http://www.w3.org/2000/svg"
   xmlns:svg="http://www.w3.org/2000/svg">
  <sodipodi:namedview
     id="namedview6"
     pagecolor="#ffffff"
     bordercolor="#666666"
     borderopacity="1.0"
     inkscape:pageshadow="2"
     inkscape:pageopacity="0.0"
     inkscape:pagecheckerboard="0"
     showgrid="false"
     inkscape:zoom="1.5764127"
     inkscape:cx="372.04724"
     inkscape:cy="154.7818"
     inkscape:window-width="1920"
     inkscape:window-height="1134"
     inkscape:window-x="-8"
     inkscape:window-y="-8"
     inkscape:window-maximized="1"
     inkscape:current-layer="layer1" />
  <defs
     id="defs3456" />
  <g
     transform="translate(53.400341,7.3080743)"
     id="layer1">
    <path
       d="M -35.683785,16.174717 L -35.683785,39.193848 L 35.018845,39.193848 C 43.238955,39.193848 47.350015,40.837078 51.461085,44.948128 C 54.749525,49.059188 54.749525,50.702418 54.749525,65.501428 L 54.749525,183.88552 C 54.749525,206.08204 50.638465,210.1931 30.907775,210.1931 L 11.177094,210.1931 L 11.177094,62.212978 L -35.683785,62.212978 L -35.683785,235.67807 L 51.461085,235.67807 C 72.012365,235.67807 77.768665,234.03484 87.634005,224.1695 C 96.676725,215.12478 98.319935,208.54788 98.319935,183.06291 L 98.319935,58.924528 C 98.319935,43.304898 96.676725,37.548628 90.099835,29.328508 C 81.877705,20.283777 71.191765,16.174717 56.392745,16.174717 L -35.683785,16.174717 L -35.683785,16.174717 z M 112.29634,235.67807 L 155.86878,235.67807 L 155.86878,123.87087 C 155.86878,115.65075 155.86878,113.18291 157.512,110.71708 C 159.97985,104.96279 166.55674,101.67435 174.77685,101.67435 C 182.17636,101.67435 187.10802,103.31757 192.86432,107.42863 L 192.86432,74.544158 C 144.35821,75.366768 128.73859,78.655218 112.29634,91.808998 L 112.29634,235.67807 z M 226.56939,10.418437 C 212.59501,10.418437 201.90705,21.106387 201.90705,34.260178 C 201.90705,48.236578 212.59501,58.924528 226.56939,58.924528 C 239.72318,58.924528 250.41114,48.236578 250.41114,34.260178 C 250.41114,21.106387 239.72318,10.420427 226.56939,10.420427 L 226.56939,10.418437 z M 284.94085,10.418437 C 270.96444,10.418437 260.27648,21.106387 260.27648,34.260178 C 260.27648,48.236578 270.96444,58.924528 284.94085,58.924528 C 298.09464,58.924528 308.78057,48.236578 308.78057,34.260178 C 308.78057,21.106387 298.09464,10.420427 284.94085,10.420427 L 284.94085,10.418437 z M 266.85338,132.9136 L 229.03724,132.9136 C 214.23822,132.9136 207.66132,134.55882 200.26181,141.95832 C 192.04171,148.53521 187.93064,158.40056 187.93064,171.55435 L 187.93064,197.03931 C 187.93064,208.54788 190.39647,216.77 196.97336,224.1695 C 205.19549,233.21223 212.59501,235.67807 229.85784,235.67807 L 311.24843,235.67807 L 311.24843,113.18291 C 311.24843,102.49696 307.95998,93.452228 300.56047,86.054718 C 291.51774,77.009998 284.11823,74.544158 267.67599,74.544158 L 201.90705,74.544158 L 201.90705,107.42863 C 218.34928,100.85174 229.03724,98.385898 243.83425,98.385898 C 259.45386,98.385898 266.85338,103.31757 266.85338,114.00553 L 266.85338,132.9136 z M 266.85338,210.1931 L 247.94531,210.1931 C 240.5458,210.1931 234.79152,207.72727 231.50307,201.97099 C 229.85784,199.50515 229.85784,198.68254 229.85784,191.28503 L 229.85784,176.48602 C 229.85784,164.15484 235.61414,158.40056 247.94531,158.40056 L 266.85338,158.40056 L 266.85338,210.1931 z M 441.9637,75.366768 L 364.68418,75.366768 C 349.88718,75.366768 344.1329,77.009998 335.91077,83.586888 C 327.69066,90.986388 323.5796,101.67435 323.5796,114.00553 L 323.5796,137.84727 C 323.5796,147.7126 326.86805,157.57794 333.44494,164.97745 C 341.66505,174.02018 348.24194,176.48602 364.68418,176.48602 L 400.03651,176.48602 C 415.65613,176.48602 422.23302,174.02018 429.63253,168.2659 C 437.85264,160.86639 441.9637,151.00105 441.9637,137.84727 L 441.9637,75.366768 z M 364.68418,116.47136 C 364.68418,105.7854 371.26107,99.208508 383.59427,99.208508 C 395.92544,99.208508 402.50234,105.7854 402.50234,116.47136 L 402.50234,135.38143 C 402.50234,146.06738 395.10282,152.64428 383.59427,152.64428 C 371.26304,152.64428 364.68418,146.06738 364.68418,135.38143 L 364.68418,116.47136 z M 445.25215,221.70167 C 445.25215,209.37049 442.78632,201.15037 436.20943,193.75087 C 427.9873,184.70814 418.94457,182.2403 401.67972,182.2403 L 365.5068,182.2403 C 349.06456,182.2403 342.48767,183.88552 334.26756,190.46242 C 326.04543,197.86193 321.11377,209.37049 321.11377,221.70167 L 321.11377,245.54341 C 321.11377,257.05397 325.22281,266.91931 331.79971,273.49621 C 340.02184,282.53894 347.42135,285.00478 365.5068,285.00478 L 401.67972,285.00478 C 417.3013,285.00478 424.69885,283.36155 432.92098,276.78466 C 441.14109,269.38515 445.25215,260.34242 445.25215,245.54341 L 445.25215,221.70167 L 445.25215,221.70167 z M 364.68418,225.81273 C 364.68418,213.48155 370.44048,206.90466 382.77165,206.90466 C 395.10282,206.90466 401.67972,213.48155 401.67972,225.81273 L 401.67972,243.90018 C 401.67972,254.58615 395.10282,261.16304 383.59427,261.16304 C 371.26304,261.16304 364.68418,254.58615 364.68418,243.90018 L 364.68418,225.81273 z M 578.43519,176.48602 L 578.43519,114.00553 C 578.43519,87.697948 564.45889,75.366768 534.86289,75.366768 L 498.68993,75.366768 C 483.07025,75.366768 476.49139,77.009998 468.27128,83.586888 C 460.05112,90.986388 455.11749,101.67435 455.11749,114.00553 L 455.11749,197.03931 C 455.11749,208.54788 458.40594,216.77 465.80545,224.99012 C 474.02556,233.21223 481.42507,235.67807 498.68993,235.67807 L 577.61269,235.67807 L 577.61269,202.7936 C 555.41609,209.37049 542.26029,211.01571 525.81809,211.01571 C 506.90999,211.01571 498.68993,206.90466 498.68993,196.2167 L 498.68993,176.48602 L 578.43519,176.48602 L 578.43519,176.48602 z M 498.68993,151.00105 L 498.68993,118.11658 C 498.68993,105.7854 504.4442,99.208508 516.77539,99.208508 C 528.28599,99.208508 534.86289,105.7854 534.86289,117.29397 L 534.86289,151.00105 L 498.68993,151.00105 z M 592.40969,235.67807 L 635.98209,235.67807 L 635.98209,123.87087 C 635.98209,115.65075 635.98209,113.18291 637.62529,110.71708 C 640.09319,104.96279 646.67009,101.67435 654.89019,101.67435 C 662.28969,101.67435 667.22129,103.31757 672.97759,107.42863 L 672.97759,74.544158 C 624.47349,75.366768 608.85189,78.655218 592.40969,91.808998 L 592.40969,235.67807 z "
       style="fill:#002766;fill-opacity:1;fill-rule:evenodd"
       id="path4486" />
  </g>
</svg>
