<?xml version="1.0" encoding="UTF-8"?>
<svg
   id="Layer_2"
   data-name="Layer 2"
   viewBox="0 0 1000.0001 194.58508"
   version="1.1"
   sodipodi:docname="Indihome.svg"
   width="1000"
   height="194.58508"
   inkscape:version="1.2.2 (732a01da63, 2022-12-09)"
   xmlns:inkscape="http://www.inkscape.org/namespaces/inkscape"
   xmlns:sodipodi="http://sodipodi.sourceforge.net/DTD/sodipodi-0.dtd"
   xmlns="http://www.w3.org/2000/svg"
   xmlns:svg="http://www.w3.org/2000/svg">
  <sodipodi:namedview
     id="namedview48"
     pagecolor="#ffffff"
     bordercolor="#111111"
     borderopacity="1"
     inkscape:showpageshadow="0"
     inkscape:pageopacity="0"
     inkscape:pagecheckerboard="1"
     inkscape:deskcolor="#d1d1d1"
     showgrid="false"
     inkscape:zoom="0.6"
     inkscape:cx="546.66667"
     inkscape:cy="106.66667"
     inkscape:window-width="1366"
     inkscape:window-height="705"
     inkscape:window-x="-8"
     inkscape:window-y="-8"
     inkscape:window-maximized="1"
     inkscape:current-layer="Layer_2" />
  <defs
     id="defs4">
    <style
       id="style2">
      .cls-1 {
        fill-rule: evenodd;
      }

      .cls-1, .cls-2 {
        fill: #ff0025;
      }

      .cls-3 {
        fill: #001a41;
      }
    </style>
  </defs>
  <path
     id="path2533"
     style="stroke-width:0.941206"
     class="cls-2"
     d="M 560.46875 0 C 547.19777 0 536.50586 10.740038 536.50586 23.992188 C 536.50586 33.526582 542.06918 41.752747 550.09766 45.621094 L 549.23047 46.119141 L 521.8418 61.78125 C 519.50762 63.108348 517.7961 65.310834 517.09961 67.917969 C 516.35606 70.572163 516.71267 73.301993 518.05859 75.673828 C 519.8657 78.845684 523.26344 80.810547 526.89648 80.810547 C 528.37418 80.810547 529.82295 80.454287 531.14062 79.861328 L 555.83008 65.658203 L 555.83008 32.066406 C 555.83008 30.92755 556.77094 30.015625 557.90039 30.015625 L 563.22656 30.015625 C 564.36542 30.015625 565.2793 30.92755 565.2793 32.066406 L 565.2793 60.21875 L 602.66406 38.722656 C 603.50173 38.261467 604.51744 38.261467 605.3457 38.722656 L 678.0625 80.105469 C 679.23901 80.547835 680.45292 80.810547 681.69531 80.810547 C 685.34719 80.810547 688.72804 78.845684 690.53516 75.673828 C 691.89048 73.301993 692.23875 70.572163 691.52344 67.917969 C 690.81753 65.310834 689.11438 63.108348 686.75195 61.78125 L 609.3457 17.572266 C 607.81154 16.696947 606.06154 16.199219 604.32031 16.199219 C 602.57908 16.199219 600.79127 16.696947 599.23828 17.572266 L 584.73242 25.855469 L 584.38672 26.060547 C 584.44322 25.373469 584.4707 24.688679 584.4707 23.992188 C 584.47076 10.740038 573.73972 2.3684734e-15 560.46875 0 z M 551.36719 11.115234 L 551.36914 11.115234 C 551.75503 11.115234 552.12975 11.264867 552.41211 11.556641 C 552.83566 12.036654 552.90133 12.744056 552.5625 13.261719 C 552.33661 13.553491 552.10089 13.79967 551.875 14.082031 C 551.63028 14.345567 551.36792 14.62495 551.17969 14.935547 C 549.88082 16.723834 549.16516 18.740959 548.98633 20.839844 C 548.73221 23.926992 549.59769 26.749951 551.57422 29.244141 C 551.67775 29.432381 551.84746 29.571171 551.99805 29.75 L 552.33789 30.126953 C 552.76144 30.644615 552.83581 31.134496 552.57227 31.699219 C 552.33697 32.21688 551.91292 32.491295 551.31055 32.519531 L 551.2832 32.519531 C 550.91613 32.519531 550.58634 32.330483 550.28516 32.029297 C 549.27807 31.031621 548.44133 29.845383 547.76367 28.537109 C 546.87893 26.861767 546.33152 25.046656 546.16211 23.117188 C 546.14331 22.816002 546.14512 22.512476 546.10742 22.220703 C 546.14512 18.305295 547.26349 15.218125 549.49414 12.498047 C 549.93651 11.952147 550.25739 11.566978 550.66211 11.322266 C 550.88799 11.171673 551.12248 11.115234 551.36719 11.115234 z M 570.11719 11.162109 C 570.4372 11.162109 570.70912 11.266651 570.97266 11.501953 C 571.65973 12.132559 572.3195 12.92403 572.92188 13.865234 C 574.06073 15.615873 574.76593 17.48813 575.08594 19.511719 C 575.23653 20.274093 575.27574 21.09205 575.28516 21.722656 C 575.24756 25.346291 574.13566 28.414686 571.92383 31.134766 C 571.45323 31.699488 571.13357 32.085365 570.73828 32.330078 C 570.53121 32.490082 570.26815 32.537109 570.02344 32.537109 C 569.62813 32.537109 569.26904 32.368653 568.99609 32.095703 C 568.55372 31.625102 568.49816 30.879697 568.86523 30.380859 C 569.05347 30.089086 569.28814 29.82639 569.52344 29.572266 C 569.78698 29.299316 570.02287 29.007863 570.26758 28.697266 C 571.38761 27.059571 572.09353 25.317769 572.34766 23.482422 C 572.73355 20.639987 572.15934 17.940748 570.57812 15.427734 C 570.17341 14.80654 569.64532 14.211391 569.14648 13.599609 C 568.72294 13.138419 568.5909 12.651351 568.72266 12.208984 C 568.83561 11.757207 569.18529 11.388519 569.64648 11.228516 C 569.8159 11.162636 569.97601 11.162108 570.11719 11.162109 z M 556.12891 15.275391 C 556.45834 15.275391 556.76966 15.426809 557.0332 15.662109 C 557.31556 15.963295 557.47656 16.303207 557.47656 16.679688 C 557.50476 17.056169 557.31539 17.470301 556.97656 17.771484 C 556.50595 18.289147 555.86563 18.974812 555.56445 19.916016 C 554.83972 22.06196 555.22685 23.964221 556.74219 25.611328 C 557.03397 25.940749 557.31763 26.240167 557.40234 26.654297 C 557.53411 27.209607 557.2886 27.803223 556.80859 28.076172 C 556.57329 28.255001 556.29088 28.320313 556.02734 28.320312 C 555.72616 28.320312 555.45315 28.236176 555.24609 28.076172 C 554.35194 27.360858 553.66433 26.427936 553.09961 25.185547 C 552.629 24.103163 552.39453 22.964506 552.39453 21.759766 C 552.44163 19.444404 553.31614 17.44043 554.97266 15.802734 C 555.29266 15.463902 555.71478 15.275391 556.12891 15.275391 z M 565.36328 15.3125 C 565.66446 15.3125 565.93782 15.407466 566.1543 15.595703 C 567.04845 16.292194 567.73375 17.241278 568.28906 18.464844 C 568.75967 19.528403 569.02433 20.687131 568.99609 21.873047 C 568.94899 24.197821 568.07484 26.212621 566.42773 27.869141 C 566.07007 28.170325 565.67461 28.369141 565.2793 28.369141 C 564.94047 28.369141 564.61972 28.217723 564.375 27.982422 C 564.08323 27.709472 563.92383 27.351444 563.92383 26.984375 C 563.92383 26.589069 564.08269 26.203714 564.41211 25.855469 C 564.90153 25.375455 565.51397 24.697955 565.83398 23.728516 C 566.57753 21.582571 566.16288 19.690075 564.67578 18.042969 C 564.30871 17.647663 564.08435 17.384294 563.99023 17.007812 C 563.85846 16.461915 564.1299 15.839356 564.57227 15.566406 C 564.8358 15.378166 565.10915 15.3125 565.36328 15.3125 z M 343.23828 18.4375 L 327.55859 35.011719 C 325.98679 36.809418 324.86719 38.600453 324.86719 41.066406 C 324.86719 42.638217 325.31853 44.877729 327.55859 46.666016 L 344.13477 60.330078 L 359.8125 43.757812 C 361.38431 41.960113 362.50586 39.945143 362.50586 37.705078 C 362.50586 36.14268 361.82668 33.891803 359.8125 32.103516 L 343.23828 18.4375 z M 288.86523 19.125 C 275.42487 19.125 268.25391 26.29723 268.25391 39.511719 L 268.25391 90.365234 C 261.97607 74.016543 249.65573 67.296875 234.20117 67.296875 C 204.62857 67.296875 187.1582 92.379079 187.1582 128.67188 C 187.1582 164.96465 204.18621 189.38086 234.20117 189.38086 C 249.65573 189.38086 261.74858 183.56312 268.46875 170.79102 C 269.81468 182.88545 276.53512 187.81836 288.85547 187.81836 C 294.22972 187.81836 299.83979 186.69842 303.42578 184.91016 L 303.42578 22.033203 C 299.83955 20.244918 294.01363 19.125 288.86523 19.125 z M 560.69531 20.019531 C 561.66475 20.019531 562.49254 20.837908 562.50195 21.826172 C 562.50195 22.306185 562.30563 22.739291 561.9668 23.078125 C 561.64679 23.435783 561.17532 23.615234 560.69531 23.615234 C 559.71645 23.615234 558.91691 22.815142 558.88867 21.845703 C 558.88867 20.857439 559.71645 20.038355 560.69531 20.019531 z M 397.37695 24.414062 C 394.81688 24.414062 392.19114 24.678004 389.48047 25.205078 C 386.77921 25.741565 384.52 26.448005 382.71289 27.351562 L 382.71289 169.30469 C 382.71289 175.92135 384.54875 181.00369 388.23828 184.5332 C 391.91839 188.06272 397.22668 189.83203 404.14453 189.83203 C 410.00824 189.83203 414.89318 188.85224 418.80859 186.89453 L 418.80859 122.80859 L 476.12695 122.80859 L 476.12695 169.29492 C 476.12695 175.9116 477.96282 180.99392 481.65234 184.52344 C 485.33245 188.05295 490.64074 189.82227 497.55859 189.82227 C 503.42231 189.82227 508.30724 188.84443 512.22266 186.88672 L 512.22266 44.943359 C 512.22266 38.32669 510.37738 33.25182 506.69727 29.712891 C 503.01716 26.183373 497.70887 24.414062 490.79102 24.414062 C 488.23094 24.414062 485.6052 24.678004 482.89453 25.205078 C 480.19327 25.741565 477.93407 26.448005 476.12695 27.351562 L 476.12695 91.203125 L 418.80859 91.203125 L 418.80859 44.943359 C 418.80859 38.32669 416.96331 33.25182 413.2832 29.712891 C 409.59368 26.183373 404.29481 24.414062 397.37695 24.414062 z M 14.560547 24.517578 C 9.4121567 24.517578 3.58599 25.637492 0 27.425781 L 0 168.33398 C 0 181.5485 7.3890684 188.7207 21.28125 188.7207 C 26.42964 188.7207 32.255806 187.60079 35.841797 185.8125 L 35.841797 44.904297 C 35.841797 31.689783 28.452728 24.517578 14.560547 24.517578 z M 604 44.152344 L 535.09375 83.785156 L 535.09375 183.02734 C 535.09375 189.38988 540.29887 194.58594 546.64258 194.58594 L 664.07812 194.58594 C 670.43126 194.58594 675.625 189.38988 675.625 183.02734 L 675.625 84.935547 L 604 44.152344 z M 605.36523 66.722656 C 641.88389 66.722656 666.07227 91.137544 666.07227 127.65625 C 666.07227 164.17496 641.87448 188.80469 605.36523 188.80469 C 568.84653 188.80469 544.65625 164.39143 544.65625 127.65625 C 544.65625 90.921067 568.84653 66.722656 605.36523 66.722656 z M 947.10742 67.267578 C 913.05464 67.267578 890.42773 90.789177 890.42773 127.08203 C 890.42773 164.93728 914.6173 189.35156 950.91016 189.35156 C 978.46863 189.35156 996.16211 179.72404 996.16211 163.5918 C 996.16211 156.19392 991.90831 150.81887 984.73633 148.80469 C 978.69379 157.99084 968.38678 162.4707 956.06641 162.4707 C 936.79995 162.4707 925.82617 152.16378 925.82617 135.36328 L 999.30664 135.36328 C 1000.2007 129.76312 999.97461 124.83304 999.97461 120.80469 C 999.97461 88.775489 981.16021 67.267578 947.10742 67.267578 z M 764.88867 67.287109 C 748.99175 67.287109 735.99538 74.900514 730.62109 89.460938 L 730.62109 87.890625 C 730.62109 76.46441 723.22297 68.849609 710.23438 68.849609 C 704.86009 68.849609 699.25981 69.969525 695.67383 71.757812 L 695.67383 187.12109 L 730.8457 187.12109 L 730.8457 114.09375 C 730.8457 101.99928 738.24431 94.158203 749.21875 94.158203 C 760.87085 94.158203 767.13867 102.8918 767.13867 118.57227 L 767.13867 187.12109 L 801.85938 187.12109 L 801.85938 114.09375 C 801.85938 102.22517 809.70141 94.158203 821.35352 94.158203 C 833.0056 94.158203 838.37891 101.77177 838.37891 118.57227 L 838.37891 187.12109 L 873.32617 187.12109 L 873.32617 108.26758 C 873.32617 83.400974 858.07861 67.287109 834.33203 67.287109 C 818.19981 67.287109 804.98455 74.902031 798.49023 92.154297 C 792.4383 74.902031 779.67499 67.287109 764.88867 67.287109 z M 130.38477 67.304688 C 114.26194 67.304687 101.49079 75.145615 95.890625 89.263672 L 95.890625 89.037109 C 95.890625 76.94264 88.492518 68.876953 75.503906 68.876953 C 70.129633 68.876953 64.529347 69.996869 60.943359 71.785156 L 60.943359 187.14844 L 96.115234 187.14844 L 96.115234 114.34766 C 96.115234 102.47907 104.18161 94.185547 116.50195 94.185547 C 128.82231 94.185547 134.64844 101.80069 134.64844 117.70703 L 134.64844 187.14844 L 169.5957 187.14844 L 169.5957 109.64062 C 169.5957 83.437514 154.5737 67.304687 130.38477 67.304688 z M 326.21289 69.507812 L 326.21289 167.39258 C 326.21289 180.60708 333.38383 187.7793 346.82422 187.7793 C 351.97261 187.7793 357.80073 186.65938 361.38672 184.87109 L 361.38672 69.507812 L 326.21289 69.507812 z M 948.00195 92.585938 C 961.89414 92.585938 968.613 101.5472 969.28125 114.76172 L 925.82617 114.76172 C 926.05206 100.65305 934.10978 92.585938 948.00195 92.585938 z M 605.36523 93.601562 C 589.23299 93.601562 580.27148 105.70738 580.27148 127.65625 C 580.27148 149.60513 589.23299 161.92383 605.36523 161.92383 C 621.49747 161.92383 630.45703 149.60513 630.45703 127.65625 C 630.45703 105.92385 621.49747 93.601562 605.36523 93.601562 z M 246.29492 94.185547 C 259.05764 94.185547 268.24414 104.04097 268.24414 116.36133 L 268.24414 142.79102 C 268.24414 153.53953 258.39818 162.72461 246.74609 162.72461 C 231.73392 162.72461 222.77344 150.40394 222.77344 128.45508 C 222.77344 106.50622 232.17689 94.185547 246.29492 94.185547 z " />
</svg>
