<svg xmlns="http://www.w3.org/2000/svg" height="800" width="1200" viewBox="-44.6283 -16.15175 386.7786 96.9105"><radialGradient gradientUnits="userSpaceOnUse" gradientTransform="matrix(1.3475 0 0 -1.3475 -512.7371 244.0134)" r="32.3039" cy="168.4126" cx="396.0381" id="a"><stop offset="0" stop-color="#fd9196"/><stop offset="1" stop-color="#f30713"/></radialGradient><path d="M32.303 0C14.471 0 0 14.471 0 32.303c0 17.832 14.472 32.304 32.303 32.304 17.833 0 32.303-14.472 32.303-32.304S50.136 0 32.303 0z" fill="url(#a)"/><path d="M32.413 2.091c-17.073 0-30.927 13.854-30.927 30.927S15.34 63.955 32.413 63.955 63.35 50.092 63.35 33.018 49.486 2.091 32.413 2.091zm.009.719c.18 0 .365.056.51.16.16.113.276.272.341.453v.01l.009.009 1.031 3.743c13.412.973 24.008 12.174 24.008 25.833 0 4.032-.925 7.854-2.571 11.258l2.656 2.675.009.01.01.009a.897.897 0 01.217.511c.017.182-.018.374-.114.538a.8951.8951 0 01-.406.369c-.175.08-.366.1-.549.065h-.028l-3.648-.954c-4.659 6.893-12.549 11.428-21.484 11.428-8.935 0-16.819-4.535-21.475-11.428l-3.638.965h-.029c-.204.037-.391-.004-.548-.076a.8992.8992 0 01-.406-.369c-.089-.154-.132-.347-.113-.528a.9095.9095 0 01.217-.512l.009-.009.01-.009 2.646-2.675c-1.648-3.408-2.57-7.231-2.57-11.268 0-13.664 10.597-24.869 24.017-25.833l1.012-3.733.009-.019v-.01c.064-.181.181-.34.341-.453.163-.116.347-.16.527-.16zm0 .377c-.109 0-.222.031-.312.095a.557.557 0 00-.198.265l-2.25 8.318c-.057.161-.081.357-.029.52.054.162.153.291.294.388.404.278.556.803.746 1.313.19.51.221.948.085 1.475-.136.527-.438 1.007-.851 1.361-.742.636-1.409 1.403-1.824 2.306-.415.903-.557 1.869-.557 2.845v2.4L15.9 17.763l-1.286 2.211 12.912 7.448v2.703l-2.325 1.343-12.912-7.458-1.286 2.231 11.626 6.711-2.08 1.201c-.845.487-1.6 1.098-2.174 1.909-.574.811-.917 1.772-1.096 2.731-.101.535-.358 1.037-.747 1.418-.388.381-.787.562-1.324.651-.536.089-1.059.239-1.502.029a.7691.7691 0 00-.491-.057c-.167.034-.333.126-.445.255l-6.058 6.135c-.072.082-.123.193-.132.302-.011.11.011.207.066.303.055.095.136.181.236.227.1.045.213.059.321.038l8.337-2.212c.167-.03.339-.109.453-.236.114-.127.185-.284.199-.454.039-.49.419-.875.766-1.295.347-.418.714-.667 1.238-.813.524-.145 1.084-.113 1.598.067.921.324 1.922.508 2.911.416.99-.092 1.896-.448 2.741-.936l2.08-1.202v13.423h2.562V39.956l2.334-1.352 2.326 1.342v14.906h2.57V41.429l2.08 1.202c.846.487 1.752.844 2.741.936.99.091 1.99-.103 2.911-.427.514-.18 1.083-.201 1.607-.057.523.146.873.396 1.219.813.345.42.736.797.774 1.285.015.17.085.326.199.454s.276.233.444.265l8.346 2.184a.536.536 0 00.321-.037c.101-.046.181-.123.236-.218a.5166.5166 0 00.066-.312c-.011-.11-.052-.22-.124-.304l-6.078-6.115c-.11-.128-.268-.238-.435-.273-.167-.035-.337-.018-.491.057-.444.21-.966.07-1.502-.02-.537-.09-.936-.279-1.324-.66-.389-.383-.646-.885-.747-1.418-.179-.962-.512-1.922-1.086-2.732-.575-.812-1.347-1.412-2.193-1.899l-2.07-1.201 11.626-6.711-1.285-2.221-12.911 7.458-2.326-1.342v-2.704l12.912-7.448-1.286-2.221-11.626 6.71v-2.4c0-.977-.151-1.942-.566-2.845-.416-.903-1.083-1.67-1.825-2.306-.413-.354-.714-.834-.85-1.361-.136-.526-.096-.965.094-1.475.191-.509.323-1.036.728-1.313.14-.098.25-.226.302-.388.053-.162.057-.359 0-.52l-2.287-8.318c-.036-.104-.1-.201-.189-.265-.087-.064-.19-.095-.301-.095zm0 16.078c.61 0 1.213.25 1.645.681.432.432.681 1.035.681 1.645v4.367L32.422 27.3l-2.334-1.352v-4.357c0-.61.249-1.212.68-1.645.432-.432 1.044-.681 1.654-.681zm.01 10.993l2.316 1.342v2.703l-2.316 1.343-2.344-1.353v-2.684zm-7.23 4.178l2.325 1.342v2.703l-3.771 2.174c-.528.305-1.177.385-1.768.228-.59-.159-1.112-.56-1.417-1.087-.305-.528-.385-1.178-.227-1.768.158-.591.549-1.104 1.078-1.408zm14.451 0l3.771 2.174c.528.305.928.818 1.087 1.408.159.59.069 1.249-.236 1.777-.305.527-.829.919-1.418 1.077-.59.157-1.23.077-1.758-.227l-3.781-2.183v-2.686z" opacity=".66"/><radialGradient gradientUnits="userSpaceOnUse" gradientTransform="matrix(1.1559 1.1559 1.0476 -1.0476 -823.7297 -123.0123)" r="46.4129" cy="334.4487" cx="409.8008" id="b"><stop offset=".0476" stop-color="#e4ebee"/><stop offset=".2722" stop-color="#f5f8f9"/><stop offset=".4667" stop-color="#fff"/><stop offset=".7524" stop-color="#bfc1c3"/><stop offset=".8667" stop-color="#dce0e6"/><stop offset=".9048" stop-color="#e2e6ed"/><stop offset="1" stop-color="#bcbec0"/></radialGradient><path d="M32.3 1.373C15.227 1.373 1.373 15.226 1.373 32.3c0 17.074 13.854 30.937 30.927 30.937 17.074 0 30.936-13.863 30.936-30.937S49.373 1.373 32.3 1.373zm.009.718c.179 0 .365.057.51.161.16.114.276.272.34.454v.009l.009.01 1.031 3.743c13.412.973 24.008 12.174 24.008 25.832 0 4.031-.924 7.852-2.57 11.257l2.656 2.676.009.009.01.01c.131.153.2.33.217.51.018.183-.018.374-.113.538a.8897.8897 0 01-.406.369.8971.8971 0 01-.548.066h-.029l-3.648-.954c-4.659 6.892-12.549 11.427-21.484 11.427-8.936 0-16.819-4.535-21.476-11.427l-3.638.964h-.029c-.204.037-.391-.004-.548-.076-.174-.08-.315-.209-.406-.369a.8911.8911 0 01-.113-.528c.016-.18.085-.357.217-.511l.01-.009.01-.01 2.646-2.675C7.325 40.16 6.403 36.336 6.403 32.3c0-13.665 10.598-24.869 24.018-25.832l1.011-3.734.009-.02v-.009a.94.94 0 01.34-.454c.163-.116.348-.16.528-.16zm0 .378c-.11 0-.223.031-.312.094a.5492.5492 0 00-.198.265l-2.25 8.318c-.056.161-.081.349-.028.511.054.162.153.3.293.396.404.279.556.804.747 1.314.19.509.221.948.085 1.475-.135.527-.447 1.006-.86 1.36-.742.636-1.4 1.404-1.815 2.306-.416.903-.557 1.869-.557 2.846v2.401l-11.626-6.711-1.286 2.211 12.912 7.448v2.703l-2.326 1.342-12.912-7.458-1.286 2.221 11.626 6.72-2.079 1.201c-.846.488-1.609 1.098-2.184 1.909-.575.811-.908 1.771-1.087 2.732-.1.534-.358 1.036-.747 1.418-.388.38-.786.561-1.323.651-.536.089-1.06.239-1.503.028a.7587.7587 0 00-.492-.056c-.167.033-.333.124-.444.254l-6.068 6.134c-.072.084-.113.194-.124.304-.011.108.012.207.066.302.055.095.137.172.236.219.101.045.214.065.322.046l8.336-2.212c.168-.031.34-.108.454-.236.113-.128.185-.284.199-.453.039-.49.419-.876.765-1.295.347-.421.714-.668 1.238-.813.525-.146 1.084-.113 1.597.067.922.323 1.922.508 2.912.414.989-.091 1.896-.446 2.741-.934l2.08-1.202v13.422h2.561V39.235l2.335-1.351 2.325 1.342v14.905h2.571V40.709l2.07 1.202c.846.487 1.761.843 2.75.934.99.093 1.99-.101 2.912-.425.513-.18 1.082-.212 1.606-.065.523.146.873.401 1.22.822.345.419.736.796.774 1.285.014.17.085.326.199.454.113.128.277.232.444.264l8.346 2.185c.108.02.222.008.322-.037a.5271.5271 0 00.236-.219.5282.5282 0 00.066-.312c-.011-.11-.052-.22-.123-.303l-6.078-6.115c-.111-.13-.269-.239-.435-.273-.167-.035-.338-.018-.492.056-.443.211-.966.071-1.502-.019-.537-.091-.935-.281-1.323-.661-.389-.382-.646-.884-.747-1.417-.18-.962-.513-1.923-1.087-2.732-.574-.812-1.347-1.412-2.193-1.9l-2.079-1.201 11.635-6.72-1.286-2.212-12.911 7.458-2.326-1.343v-2.703l12.912-7.448-1.285-2.221-11.626 6.711v-2.401c0-.977-.151-1.943-.567-2.846-.416-.902-1.083-1.67-1.824-2.306-.414-.354-.715-.833-.851-1.36-.135-.527-.096-.965.094-1.475.191-.509.324-1.036.729-1.314.14-.097.249-.235.302-.396.054-.162.057-.35 0-.511l-2.287-8.318a.5684.5684 0 00-.198-.265.4833.4833 0 00-.291-.093zm0 16.078c.61 0 1.212.249 1.645.681.432.432.68 1.035.68 1.645v4.367l-2.325 1.342-2.335-1.352v-4.358c0-.61.249-1.212.681-1.645.432-.432 1.044-.68 1.654-.68zm0 10.993l2.325 1.342v2.704l-2.315 1.341-2.344-1.351v-2.685zm-7.231 4.169l2.335 1.352v2.703l-3.772 2.174c-.528.305-1.177.384-1.768.227-.59-.158-1.113-.559-1.418-1.087-.305-.527-.385-1.178-.227-1.767.158-.591.549-1.113 1.078-1.418zm14.453 0l3.78 2.184c.529.305.929.817 1.087 1.408.159.59.059 1.249-.246 1.776-.305.528-.819.92-1.409 1.078-.589.157-1.239.077-1.767-.228l-3.772-2.174V35.05z" fill="url(#b)"/><path d="M69.946 5.162l11.914 36.38v17.77h11.755v-17.77l11.242-36.38H94.231l-6.676 23.641-6.484-23.641zm73.377 0v54.149h9.777V24.195l5.604 35.116h7.382l5.592-35.116v35.116h9.961V5.162h-14.93l-4.258 25.759-4.104-25.759zm83.67 0v54.149h10.898V36.49h9.283v22.821h10.639V5.162h-10.639v21.542h-9.283V5.162zm46.303-.01l-9.417 54.157h10.629l2.096-13.229h8.144l2.053 13.229h10.721l-9.42-54.157zm7.469 11.876l2.771 19.593h-5.659zM196.969 5.152l-9.417 54.157h10.629l2.096-13.229h8.145l2.052 13.229h10.722l-9.42-54.157zm7.469 11.876l2.771 19.593h-5.659zM113.343 5.152l-9.418 54.157h10.629l2.095-13.229h8.145l2.052 13.229h10.722l-9.419-54.157zm7.468 11.876l2.772 19.593h-5.66z" fill="#f30711"/></svg>