<svg id="visual" viewBox="0 0 900 600" width="900" height="600" xmlns="http://www.w3.org/2000/svg" xmlns:xlink="http://www.w3.org/1999/xlink" version="1.1"><rect x="0" y="0" width="900" height="600" fill="#2ed6e6"></rect><path d="M0 398L10.7 403C21.3 408 42.7 418 64.2 419C85.7 420 107.3 412 128.8 416.2C150.3 420.3 171.7 436.7 193 455.3C214.3 474 235.7 495 257 489.2C278.3 483.3 299.7 450.7 321.2 433.7C342.7 416.7 364.3 415.3 385.8 415.2C407.3 415 428.7 416 450 419.3C471.3 422.7 492.7 428.3 514.2 435.8C535.7 443.3 557.3 452.7 578.8 458.7C600.3 464.7 621.7 467.3 643 454.5C664.3 441.7 685.7 413.3 707 411C728.3 408.7 749.7 432.3 771.2 445.5C792.7 458.7 814.3 461.3 835.8 449.3C857.3 437.3 878.7 410.7 889.3 397.3L900 384L900 601L889.3 601C878.7 601 857.3 601 835.8 601C814.3 601 792.7 601 771.2 601C749.7 601 728.3 601 707 601C685.7 601 664.3 601 643 601C621.7 601 600.3 601 578.8 601C557.3 601 535.7 601 514.2 601C492.7 601 471.3 601 450 601C428.7 601 407.3 601 385.8 601C364.3 601 342.7 601 321.2 601C299.7 601 278.3 601 257 601C235.7 601 214.3 601 193 601C171.7 601 150.3 601 128.8 601C107.3 601 85.7 601 64.2 601C42.7 601 21.3 601 10.7 601L0 601Z" fill="#109cab" stroke-linecap="round" stroke-linejoin="miter"></path></svg>