<?xml version="1.0" encoding="UTF-8"?>
<!DOCTYPE svg PUBLIC "-//W3C//DTD SVG 1.1//EN" "http://www.w3.org/Graphics/SVG/1.1/DTD/svg11.dtd">
<!-- Creator: CorelDRAW 2019 (64-Bit) -->
<svg xmlns="http://www.w3.org/2000/svg" xml:space="preserve" width="400mm" height="400mm" version="1.1" style="shape-rendering:geometricPrecision; text-rendering:geometricPrecision; image-rendering:optimizeQuality; fill-rule:evenodd; clip-rule:evenodd"
viewBox="0 0 4000 4000"
 xmlns:xlink="http://www.w3.org/1999/xlink">
 <defs>
  <style type="text/css">
   <![CDATA[
    .str0 {stroke:#2B2A29;stroke-width:2;stroke-miterlimit:22.9256}
    .fil2 {fill:none}
    .fil0 {fill:#163B54}
    .fil3 {fill:#33809C}
    .fil4 {fill:#C09546}
    .fil5 {fill:#DFB87E}
    .fil1 {fill:white}
    .fil6 {fill:#163B54;fill-rule:nonzero}
   ]]>
  </style>
 </defs>
 <g id="Layer_x0020_1">
  <metadata id="CorelCorpID_0Corel-Layer"/>
  <circle class="fil0" cx="1999.327" cy="2000.673" r="1957.303"/>
  <circle class="fil1" cx="1999.327" cy="2000.673" r="1908.517"/>
  <circle class="fil2" cx="1999.327" cy="2000.673" r="1835.323"/>
  <circle class="fil0" cx="1999.327" cy="2000.673" r="1368.982"/>
  <circle class="fil1" cx="1999.327" cy="2000.672" r="1233.493"/>
  <circle class="fil2" cx="1999.327" cy="2000.672" r="1087.102"/>
  <path class="fil2" d="M942.099 2254.841c152.707,-160.632 305.415,-321.263 495.63,-474.774 190.213,-153.511 417.932,-299.903 641.002,-394.782 223.068,-94.881 441.486,-138.253 659.904,-181.622"/>
  <path class="fil2" d="M1189.808 2726.268c135.202,-126.199 270.401,-252.4 416.619,-368.817 146.218,-116.414 303.454,-223.043 550.771,-260.023 247.314,-36.978 584.712,-4.303 753.432,11.83 168.723,16.134 168.768,15.726 168.815,15.32"/>
  <path class="fil3" d="M1606.427 2357.451c-146.218,116.417 -281.417,242.618 -416.619,368.817 199.033,221.902 487.973,361.505 809.52,361.505 558.49,0 1018.618,-421.152 1080.117,-963.195 -0.047,0.406 -0.092,0.814 -168.815,-15.32 -168.72,-16.133 -506.118,-48.808 -753.432,-11.83 -247.317,36.98 -404.553,143.609 -550.771,260.023z"/>
  <path class="fil4" d="M1189.808 2726.268c135.202,-126.199 270.401,-252.4 416.619,-368.817 146.218,-116.414 303.454,-223.043 550.771,-260.023 247.314,-36.978 584.712,-4.303 753.432,11.83 168.723,16.134 168.768,15.726 168.815,15.32 4.613,-40.665 6.984,-82.008 6.984,-123.906 0,-314.873 -133.868,-598.479 -347.794,-797.009 -218.418,43.369 -436.836,86.741 -659.904,181.622 -223.07,94.879 -450.789,241.271 -641.002,394.782 -190.215,153.511 -342.923,314.142 -495.63,474.774 42.693,178.231 129.287,339.396 247.709,471.427z"/>
  <path class="fil5" d="M942.099 2254.841c152.707,-160.632 305.415,-321.263 495.63,-474.774 190.213,-153.511 417.932,-299.903 641.002,-394.782 223.068,-94.881 441.486,-138.253 659.904,-181.622 -193.981,-180.022 -453.791,-290.092 -739.307,-290.092 -600.389,0 -1087.103,486.712 -1087.103,1087.101 0,87.524 10.342,172.632 29.874,254.169z"/>
  <circle class="fil2" cx="1999.327" cy="2000.673" r="1820.427"/>
  <path class="fil0" d="M3819.754 2000.672c0,1005.394 -815.034,1820.428 -1820.426,1820.428 -1005.394,0 -1820.429,-815.034 -1820.429,-1820.428 0,-1005.392 815.035,-1820.426 1820.429,-1820.426 1005.392,0 1820.426,815.034 1820.426,1820.426zm-1820.426 1835.324c1013.62,0 1835.322,-821.704 1835.322,-1835.324 0,-1013.62 -821.702,-1835.322 -1835.322,-1835.322 -1013.62,0 -1835.324,821.702 -1835.324,1835.322 0,1013.62 821.704,1835.324 1835.324,1835.324z"/>
  <path class="fil1" d="M1949.331 2865.139c-25.074,-168.982 -50.148,-337.965 -44.175,-626.12 5.971,-288.155 42.993,-695.485 80.012,-1102.812 -97.795,79.302 -195.588,158.603 -293.383,237.906 1.133,279.228 2.267,558.457 3.4,837.686 -52.198,56.026 -104.396,112.049 -156.593,168.075 -102.55,-116.918 -205.099,-233.835 -307.648,-350.753 -53.32,67.219 -106.641,134.437 -159.962,201.656 134.644,134.644 269.288,269.288 415.68,375.015 146.39,105.728 304.531,182.536 462.669,259.347z"/>
  <path class="fil0" d="M1949.331 2865.139c25.564,-405.694 33.208,-442.721 87.897,-707.241 54.69,-264.519 43.882,-786.14 68.059,-909.486 -36.382,-37.733 -83.737,-74.473 -120.119,-112.205 -37.019,407.327 -74.209,822.784 -80.012,1102.812 -5.803,280.028 20.609,466.312 44.175,626.12z"/>
  <polygon class="fil1" points="1397.447,1993.549 1495.042,2248.38 1638.723,2119.609 1545.194,1821.404 "/>
  <path class="fil0" d="M1407.298 2019.265l-176.354 9.856c102.549,116.918 205.098,233.835 307.648,350.753 52.197,-56.026 104.395,-112.049 156.593,-168.075 -0.435,-107.098 -0.869,-214.197 -1.304,-321.295l-148.687 -69.1 93.529 298.205 -143.681 128.771 -87.744 -229.115z"/>
  <path class="fil1" d="M2037.228 2157.898c106.631,-48.798 213.263,-97.594 314.021,-132.836 100.756,-35.243 195.639,-56.932 290.522,-78.619 -7.23,-28.916 -14.458,-57.833 -21.687,-86.749 -110.246,-1.808 -220.49,-3.615 -330.736,-5.422 32.531,-28.917 65.063,-57.833 97.594,-86.75 5.422,-69.581 10.842,-139.163 16.265,-208.744 -60.545,-6.326 -121.089,-12.65 -181.633,-18.976 -11.748,34.339 -23.494,68.678 -35.243,103.017 17.622,-156.331 35.241,-312.66 52.862,-468.991 -34.789,-25.754 -69.581,-51.507 -104.371,-77.262 -32.513,164.122 -65.028,328.244 -81.292,505.133 -16.267,176.889 -16.283,366.544 -16.302,556.199z"/>
  <path class="fil0" d="M2221.574 1539.802c60.544,6.326 121.088,12.65 181.633,18.976 -5.423,69.581 -10.843,139.163 -16.265,208.744 -32.531,28.917 -65.063,57.833 -97.594,86.75 110.246,1.807 220.49,3.614 330.736,5.422 7.229,28.916 14.457,57.833 21.687,86.749 -94.883,21.687 -189.766,43.376 -290.522,78.619 -100.758,35.242 -207.39,84.038 -314.021,132.836 395.733,-52.849 648.658,-61.173 1042.217,-33.32l-466.13 -415.332 -16.267 -222.297 -235.853 5.42 31.155 -306.338 -175.409 -115.541 -82.119 26.076c8.55,6.328 95.822,70.932 104.371,77.262 -17.621,156.331 -35.24,312.66 -52.862,468.991 11.749,-34.339 23.495,-68.678 35.243,-103.017z"/>
  <polygon class="fil1" points="2134.544,2267.362 2329.732,2484.239 2564.23,2320.225 2392.083,2175.19 "/>
  <polyline class="fil2" points="2134.544,2267.362 2095.233,2446.285 2293.135,2648.252 2545.252,2404.266 2540.844,2336.582 2540.844,2336.58 "/>
  <polygon class="fil0" points="2134.544,2267.362 2095.233,2446.285 2293.135,2648.252 2545.252,2404.266 2564.23,2320.223 2329.732,2484.239 "/>
  <path class="fil6" d="M608.075 1468.093l-118.161 34.847 -44.56 -90.832 -15.674 42.946 46.722 91.359 -70.654 -25.786 -12.977 35.558 161.625 58.987 12.978 -35.558 -49.411 -18.033 -12.569 -25.781 87.091 -24.991 15.59 -42.716zm61.466 -140.724l-30.586 -14.085 -39.068 84.837 -32.818 -15.113 33.927 -73.674 -30.586 -14.085 -33.928 73.674 -31.702 -14.599 38.554 -83.721 -30.586 -14.085 -54.181 117.656 156.279 71.967 54.695 -118.772zm105.598 -176.877l-145.663 -91.567 -21.714 34.542 37.526 77.009 -85.664 -0.432 -21.715 34.543 145.663 91.568 19.883 -31.63 -94.473 -59.388 87.103 -1.857 0.523 -0.833 -36.449 -80.106 95.097 59.781 19.883 -31.63zm104.981 -136.351l-26.518 -20.753 -57.563 73.555 -28.454 -22.268 49.989 -63.876 -26.519 -20.753 -49.989 63.876 -27.485 -21.51 56.805 -72.586 -26.518 -20.753 -79.83 102.008 135.494 106.036 80.588 -102.976zm133.884 -130.53l-118.033 -125.182 -27.182 25.631 72.674 77.075 -131.331 -21.768 -25.394 23.944 118.033 125.181 27.183 -25.63 -75.036 -79.58 135.659 22.418 23.427 -22.089zm49.192 -215.464l-21.511 -27.486 -112.266 87.859 21.51 27.485 41.229 -32.265 84.526 108.009 29.809 -23.329 -84.526 -108.008 41.229 -32.265zm219.742 22.597l-18.347 -28.236 -78.319 50.89 -19.686 -30.297 68.014 -44.193 -18.348 -28.237 -68.014 44.194 -19.016 -29.267 77.288 -50.22 -18.347 -28.236 -108.616 70.576 93.744 144.272 109.647 -71.246zm166.267 -76.32l-63.595 -38.705c8.32,-8.252 13.775,-17.772 16.364,-28.56 2.591,-10.789 1.02,-22.529 -4.713,-35.223l-0.202 -0.449c-7.35,-16.277 -18.272,-26.627 -32.765,-31.051 -14.493,-4.422 -31.073,-2.419 -49.741,6.011l-71.683 32.369 70.809 156.807 34.497 -15.578 -22.658 -50.178 27.105 -12.24 56.26 35.005 40.322 -18.208zm-86.081 -84.916c3.035,6.721 3.186,13.125 0.452,19.214 -2.735,6.089 -8.358,11.056 -16.87,14.9l-34.945 15.78 -20.332 -45.026 34.273 -15.477c8.513,-3.844 16.001,-4.978 22.466,-3.402 6.465,1.575 11.382,6.097 14.754,13.564l0.202 0.447zm150.827 62.277l-51.684 -164.107 -36.103 11.37 51.683 164.107 36.104 -11.37zm203.253 -54.855l-110.818 -152.261 -34.008 7.849 -32.878 185.426 37.6 -8.678 6.65 -41.138 70.889 -16.362 24.007 34.063 38.558 -8.899zm-83.254 -54.694l-44.546 10.281 9.725 -59.506 34.821 49.225zm260.974 29.68l-23.583 -170.429 -37.007 5.121 14.52 104.935 -94.378 -93.885 -34.574 4.784 23.583 170.429 37.008 -5.121 -14.993 -108.344 97.529 96.923 31.895 -4.413zm247.477 -135.292l0.499 -34.898 -142.544 -2.036 -0.498 34.898 52.347 0.748 -1.958 137.137 37.848 0.54 1.959 -137.137 52.347 0.748zm173.592 167.195l-31.362 -67.519c11.503,-2.237 21.328,-7.121 29.476,-14.65 8.149,-7.53 13.368,-18.164 15.656,-31.903l0.081 -0.485c2.935,-17.618 -0.393,-32.292 -9.985,-44.024 -9.591,-11.73 -24.488,-19.278 -44.693,-22.644l-77.584 -12.924 -28.271 169.714 37.338 6.22 9.047 -54.309 29.336 4.887 27.321 60.367 43.64 7.27zm-24.376 -118.433c-1.211,7.273 -4.645,12.682 -10.302,16.224 -5.657,3.543 -13.092,4.548 -22.305,3.013l-37.822 -6.3 8.118 -48.733 37.095 6.18c9.213,1.534 16.069,4.753 20.568,9.655 4.5,4.902 6.075,11.395 4.729,19.476l-0.081 0.485zm214.473 168.789l-25.464 -186.589 -33.668 -9.198 -116.797 147.725 37.225 10.169 25.345 -33.079 70.181 19.173 5.005 41.37 38.173 10.429zm-47.409 -87.607l-44.101 -12.048 36.754 -47.799 7.347 59.847zm210.822 162.878l71.967 -156.279 -33.934 -15.627 -44.311 96.223 -28.917 -129.944 -31.703 -14.6 -71.967 156.279 33.935 15.627 45.75 -99.349 29.933 134.202 29.247 13.468zm169.224 37.764l0.243 -0.426c3.733,-6.549 5.905,-12.761 6.518,-18.636 0.613,-5.874 -0.151,-11.731 -2.221,-17.531 -2.069,-5.801 -5.384,-11.65 -9.871,-17.509 -4.489,-5.858 -9.974,-11.954 -16.418,-18.267 -5.434,-5.359 -9.885,-9.877 -13.389,-13.572 -3.47,-3.674 -6.009,-6.913 -7.654,-9.737 -1.609,-2.802 -2.369,-5.358 -2.28,-7.664 0.088,-2.307 0.823,-4.67 2.202,-7.091l0.244 -0.426c2.109,-3.702 5.475,-5.886 10.098,-6.552 4.623,-0.666 10.137,0.827 16.544,4.478 6.406,3.651 12.062,8.618 16.968,14.904 4.906,6.284 9.405,13.611 13.501,21.98l31.201 -15.036c-4.2,-10.503 -9.957,-20.008 -17.274,-28.515 -7.316,-8.508 -16.455,-15.885 -27.418,-22.132 -7.687,-4.381 -15.343,-7.33 -22.931,-8.825 -7.588,-1.495 -14.848,-1.578 -21.712,-0.208 -6.862,1.369 -13.119,4.074 -18.805,8.095 -5.651,4.041 -10.441,9.469 -14.335,16.302l-0.243 0.427c-4.219,7.403 -6.575,14.265 -7.065,20.586 -0.491,6.322 0.481,12.392 2.846,18.172 2.364,5.78 5.994,11.573 10.817,17.34 4.86,5.786 10.517,11.745 17.043,17.916 5.372,5.136 9.645,9.551 12.749,13.206 3.103,3.655 5.353,6.823 6.784,9.525 1.395,2.68 2.017,5.063 1.867,7.146 -0.15,2.084 -0.833,4.193 -2.05,6.329l-0.243 0.427c-2.516,4.413 -6.369,6.791 -11.561,7.132 -5.194,0.341 -11.206,-1.435 -18.04,-5.33 -8.541,-4.868 -15.475,-10.988 -20.798,-18.359 -5.323,-7.371 -9.82,-15.781 -13.489,-25.227l-32.698 12.202c4.345,13.226 10.883,24.921 19.613,35.083 8.731,10.162 18.791,18.488 30.181,24.979 8.114,4.624 16.106,7.811 23.937,9.54 7.833,1.729 15.302,2.025 22.338,0.848 7.035,-1.177 13.532,-3.888 19.522,-8.112 5.955,-4.245 11.06,-10.058 15.279,-17.462zm138.613 167.589l106.036 -135.494 -32.131 -25.145 -80.454 29.422 9.223 -85.167 -32.132 -25.146 -106.036 135.494 29.421 23.025 68.773 -87.878 -7.094 86.834 0.775 0.606 83.424 -28.034 -69.227 88.458 29.422 23.025zm57.95 56.609l118.126 -125.094 -27.521 -25.988 -118.126 125.094 27.521 25.988zm153.309 130.766l56.706 -48.657 -48.656 -56.706 -24.809 21.287 24.808 28.913 -18.778 16.112c-11.55,-2.829 -21.928,-9.577 -31.104,-20.272 -5.015,-5.845 -8.551,-12.042 -10.607,-18.591 -2.056,-6.548 -2.708,-13.221 -2.018,-19.966 0.69,-6.745 2.726,-13.243 6.139,-19.518 3.383,-6.25 8.089,-11.961 14.059,-17.083l0.373 -0.32c5.596,-4.802 11.708,-8.373 18.274,-10.66 6.597,-2.314 13.182,-3.321 19.785,-3.049 6.602,0.272 12.97,1.717 19.041,4.388 6.071,2.672 11.347,6.62 15.828,11.843 3.202,3.731 5.825,7.417 7.87,11.059 2.047,3.643 3.657,7.281 4.832,10.916 1.175,3.633 2.021,7.388 2.538,11.262 0.518,3.874 0.786,7.961 0.806,12.262l37.35 -0.632c-0.021,-5.811 -0.458,-11.481 -1.315,-17.008 -0.855,-5.527 -2.299,-10.982 -4.327,-16.367 -2.029,-5.384 -4.693,-10.817 -7.993,-16.298 -3.3,-5.482 -7.458,-11.144 -12.472,-16.989 -8.537,-9.948 -18.152,-17.568 -28.844,-22.859 -10.694,-5.291 -21.732,-8.343 -33.116,-9.155 -11.384,-0.811 -22.616,0.567 -33.696,4.137 -11.08,3.569 -21.283,9.355 -30.609,17.357l-0.374 0.321c-9.699,8.323 -17.213,17.684 -22.54,28.084 -5.327,10.4 -8.387,21.177 -9.181,32.329 -0.793,11.154 0.731,22.367 4.577,33.643 3.845,11.275 10.142,22.011 18.892,32.208 10.243,11.938 21.359,20.806 33.351,26.603 11.99,5.796 23.727,9.598 35.21,11.406zm87.994 167.311l26.323 -69.638c9.644,6.658 20.006,10.264 31.086,10.822 11.082,0.557 22.332,-3.15 33.752,-11.123l0.404 -0.282c14.644,-10.224 22.804,-22.866 24.481,-37.926 1.676,-15.059 -3.348,-30.986 -15.073,-47.781l-45.025 -64.491 -141.073 98.492 21.668 31.036 45.144 -31.517 17.025 24.385 -24.039 61.747 25.327 36.276zm67.599 -100.254c-6.046,4.221 -12.313,5.55 -18.801,3.985 -6.489,-1.566 -12.407,-6.177 -17.754,-13.836l-21.949 -31.439 40.508 -28.281 21.528 30.835c5.346,7.658 7.841,14.81 7.483,21.454 -0.356,6.644 -3.894,12.311 -10.612,17.001l-0.403 0.281zm24.297 274.368l117.933 -146.819 -16.48 -30.766 -187.566 16.819 18.221 34.016 41.444 -4.353 34.352 64.132 -26.589 32.088 18.685 34.883zm30.987 -94.671l-21.586 -40.299 59.977 -6.196 -38.391 46.495zm70.382 216.563l0.454 -0.186c6.979,-2.849 12.522,-6.396 16.63,-10.64 4.108,-4.243 7.122,-9.324 9.073,-15.165 1.951,-5.841 2.953,-12.489 3.038,-19.869 0.084,-7.379 -0.469,-15.561 -1.644,-24.506 -0.968,-7.57 -1.682,-13.871 -2.159,-18.941 -0.462,-5.033 -0.461,-9.149 -0.013,-12.386 0.464,-3.197 1.443,-5.677 2.937,-7.437 1.493,-1.761 3.529,-3.167 6.109,-4.22l0.454 -0.186c3.945,-1.61 7.941,-1.251 11.989,1.078 4.049,2.329 7.467,6.907 10.254,13.734 2.787,6.826 4.172,14.225 4.153,22.198 -0.019,7.973 -1,16.515 -2.943,25.627l33.83 7.426c3.178,-10.856 4.514,-21.888 4.008,-33.097 -0.507,-11.21 -3.145,-22.655 -7.915,-34.336 -3.345,-8.192 -7.549,-15.236 -12.596,-21.096 -5.048,-5.859 -10.71,-10.405 -16.955,-13.564 -6.245,-3.157 -12.838,-4.891 -19.793,-5.236 -6.941,-0.308 -14.059,1.006 -21.341,3.98l-0.454 0.185c-7.889,3.221 -13.977,7.167 -18.264,11.838 -4.288,4.671 -7.27,10.048 -8.976,16.055 -1.707,6.007 -2.427,12.805 -2.19,20.319 0.252,7.552 1.026,15.732 2.352,24.616 1.057,7.356 1.695,13.468 1.881,18.259 0.186,4.791 0.001,8.672 -0.541,11.681 -0.556,2.97 -1.537,5.229 -2.941,6.775 -1.404,1.547 -3.244,2.785 -5.519,3.715l-0.455 0.185c-4.703,1.921 -9.203,1.413 -13.498,-1.523 -4.297,-2.937 -7.931,-8.045 -10.905,-15.327 -3.716,-9.102 -5.394,-18.196 -5.033,-27.282 0.36,-9.084 2.012,-18.477 4.956,-28.174l-33.259 -10.579c-4.744,13.087 -6.818,26.325 -6.22,39.709 0.598,13.384 3.375,26.144 8.33,38.28 3.531,8.647 7.852,16.087 12.948,22.28 5.095,6.194 10.79,11.037 17.052,14.453 6.262,3.417 13.047,5.293 20.367,5.666 7.305,0.336 14.91,-1.088 22.799,-4.309zm-31.29 90.477l165.184 -48.131 -10.589 -36.341 -165.184 48.131 10.589 36.341z"/>
  <path class="fil6" d="M459.06 2662.9l64.79 -104.779 93.786 37.95 -16.969 -42.451 -95.749 -36.901 69.839 -27.917 -14.05 -35.148 -159.762 63.862 14.05 35.148 48.841 -19.523 26.561 10.823 -48.215 76.713 16.878 42.223zm67.866 137.777l29.861 -15.563 -43.167 -82.827 32.04 -16.699 37.488 71.929 29.861 -15.564 -37.487 -71.928 30.951 -16.131 42.599 81.737 29.861 -15.562 -59.866 -114.868 -152.575 79.519 60.434 115.957zm124.89 107.69l0.413 -0.266c6.336,-4.084 11.133,-8.589 14.391,-13.515 3.258,-4.927 5.287,-10.474 6.131,-16.574 0.845,-6.101 0.609,-12.82 -0.664,-20.089 -1.274,-7.269 -3.321,-15.21 -6.12,-23.787 -2.342,-7.263 -4.202,-13.326 -5.603,-18.222 -1.379,-4.862 -2.135,-8.908 -2.288,-12.172 -0.132,-3.228 0.374,-5.846 1.519,-7.851 1.144,-2.004 2.888,-3.761 5.23,-5.27l0.412 -0.266c3.582,-2.308 7.576,-2.69 11.983,-1.144 4.408,1.545 8.609,5.417 12.603,11.616 3.994,6.197 6.716,13.216 8.162,21.057 1.447,7.84 2.052,16.417 1.817,25.731l34.618 1.082c1.129,-11.255 0.414,-22.344 -2.143,-33.269 -2.557,-10.926 -7.254,-21.691 -14.09,-32.297 -4.793,-7.438 -10.22,-13.59 -16.258,-18.422 -6.039,-4.832 -12.44,-8.26 -19.159,-10.217 -6.719,-1.956 -13.518,-2.449 -20.418,-1.51 -6.879,0.973 -13.635,3.573 -20.246,7.834l-0.413 0.266c-7.162,4.616 -12.421,9.613 -15.777,14.992 -3.356,5.38 -5.299,11.213 -5.873,17.431 -0.574,6.218 -0.032,13.033 1.581,20.376 1.637,7.377 3.9,15.275 6.837,23.764 2.39,7.037 4.14,12.927 5.203,17.603 1.064,4.675 1.595,8.524 1.616,11.581 -0.002,3.022 -0.55,5.423 -1.646,7.201 -1.096,1.778 -2.677,3.333 -4.743,4.665l-0.413 0.266c-4.27,2.752 -8.786,3.08 -13.548,0.983 -4.763,-2.097 -9.274,-6.45 -13.535,-13.062 -5.326,-8.264 -8.647,-16.895 -9.962,-25.892 -1.315,-8.996 -1.417,-18.532 -0.306,-28.605l-34.636 -4.288c-2.259,13.737 -1.864,27.13 1.183,40.176 3.047,13.047 8.122,25.079 15.223,36.098 5.06,7.851 10.675,14.37 16.821,19.521 6.148,5.153 12.635,8.866 19.418,11.074 6.784,2.207 13.798,2.805 21.062,1.826 7.242,-1.012 14.456,-3.809 21.618,-8.425zm54.868 158.887l26.493 -20.785 -57.652 -73.485 28.427 -22.302 50.066 63.816 26.493 -20.786 -50.066 -63.815 27.46 -21.543 56.893 72.517 26.493 -20.785 -79.954 -101.911 -135.365 106.201 80.712 102.878zm132.607 58.279l81.247 -77.919 -26.881 -28.028 -80.005 76.727c-7.214,6.919 -13.865,10.46 -19.953,10.622 -6.087,0.163 -11.626,-2.358 -16.617,-7.561 -4.196,-4.376 -6.93,-9.417 -8.202,-15.122 -1.271,-5.706 -1.657,-12.204 -1.157,-19.494l-35.661 1.166c-1.002,9.135 -0.189,18.742 2.44,28.821 2.628,10.08 8.592,19.968 17.893,29.666 6.238,6.505 12.882,11.598 19.933,15.28 7.05,3.682 14.281,5.659 21.692,5.93 7.412,0.271 14.917,-1.195 22.517,-4.396 7.6,-3.203 15.185,-8.433 22.754,-15.692zm108.879 180.581l57.527 -179.316 -26.405 -22.824 -169.1 82.88 29.195 25.234 37.136 -18.908 55.041 47.575 -13.333 39.482 29.939 25.877zm-4.974 -99.488l-34.588 -29.896 53.78 -27.264 -19.192 57.16zm143.811 201.088l99.566 -140.316 -30.87 -21.905 -39.4 55.525 -56.928 -40.395 39.4 -55.525 -30.87 -21.905 -99.566 140.317 30.87 21.904 39.968 -56.327 56.929 40.396 -39.969 56.327 30.87 21.904zm216.695 -32.987l17.352 -30.283 -123.692 -70.874 -17.352 30.283 45.425 26.028 -68.187 119 32.843 18.818 68.186 -119 45.425 26.028zm77.128 185.568l13.954 -30.645 -85.004 -38.706 14.973 -32.882 73.818 33.612 13.955 -30.646 -73.819 -33.613 14.464 -31.764 83.885 38.196 13.954 -30.645 -117.886 -53.679 -71.299 156.585 119.005 54.187zm172.69 59.719l-19.463 -71.858c11.715,-0.254 22.226,-3.402 31.533,-9.441 9.307,-6.04 16.252,-15.636 20.837,-28.788l0.162 -0.465c5.878,-16.864 5.086,-31.891 -2.379,-45.078 -7.463,-13.186 -20.865,-23.151 -40.207,-29.893l-74.27 -25.888 -56.63 162.466 35.743 12.459 18.121 -51.989 28.084 9.789 16.692 64.124 41.777 14.562zm-3.948 -120.851c-2.427,6.963 -6.727,11.711 -12.903,14.243 -6.176,2.533 -13.674,2.263 -22.493,-0.811l-36.207 -12.621 16.261 -46.651 35.511 12.378c8.819,3.074 15.031,7.408 18.633,13.003 3.604,5.593 4.056,12.259 1.36,19.995l-0.162 0.464zm196.341 162.685l-33.162 -185.375 -34.02 -7.798 -110.585 152.43 37.614 8.621 23.954 -34.1 70.914 16.254 6.713 41.128 38.572 8.84zm-50.993 -85.57l-44.562 -10.214 34.745 -49.278 9.817 59.492zm245.069 100.134l-60.399 -178.369 -34.802 -2.644 -86.651 167.199 38.478 2.923 18.609 -37.287 72.544 5.511 12.763 39.67 39.458 2.997zm-63.168 -77.022l-45.586 -3.463 27.019 -53.903 18.567 57.366zm242.627 74.263l-3.598 -172.015 -37.352 0.781 2.216 105.912 -82.817 -104.226 -34.895 0.73 3.597 172.015 37.352 -0.781 -2.287 -109.353 85.592 107.611 32.192 -0.674zm246.586 -112.252l-16.637 -95.651 -37.292 6.487 16.89 97.104c2.358,13.56 0.899,24.292 -4.38,32.195 -5.277,7.904 -13.647,12.853 -25.109,14.847 -11.462,1.993 -21.033,0.041 -28.712,-5.859 -7.678,-5.899 -12.726,-15.79 -15.141,-29.674l-16.679 -95.893 -37.292 6.486 16.849 96.862c4.352,25.022 14.161,42.693 29.428,53.01 15.266,10.318 34.281,13.497 57.043,9.538 11.301,-1.966 21.278,-5.323 29.932,-10.071 8.654,-4.749 15.657,-10.873 21.004,-18.374 5.348,-7.499 8.93,-16.313 10.744,-26.442 1.814,-10.129 1.598,-21.65 -0.648,-34.565zm196.963 20.826l-47.441 -165.383 -35.912 10.301 29.21 101.829 -106.704 -79.599 -33.55 9.624 47.442 165.383 35.911 -10.301 -30.159 -105.137 110.252 82.161 30.951 -8.878zm101.041 -193.437l-14.373 -31.805 -129.909 58.705 14.372 31.805 47.708 -21.559 56.479 124.983 34.493 -15.588 -56.478 -124.982 47.708 -21.559zm174.208 -24.234l-48.049 -84.363 -32.891 18.734 48.779 85.645c6.812,11.96 9.073,22.552 6.784,31.776 -2.29,9.224 -8.488,16.715 -18.598,22.473 -10.109,5.758 -19.776,7.162 -28.998,4.212 -9.223,-2.95 -17.323,-10.547 -24.297,-22.793l-48.171 -84.576 -32.891 18.733 48.658 85.431c12.57,22.069 27.784,35.373 45.643,39.91 17.858,4.537 36.826,1.089 56.902,-10.346 9.967,-5.676 18.218,-12.214 24.752,-19.613 6.535,-7.399 11.049,-15.533 13.54,-24.401 2.492,-8.868 2.877,-18.374 1.154,-28.518 -1.724,-10.145 -5.829,-20.913 -12.317,-32.304zm197.99 -45.292l-116.965 -38.673 15.121 -100.036 -37.347 26.367 -13.645 101.702 -43.379 -61.442 -30.921 21.831 99.232 140.553 30.922 -21.831 -30.337 -42.969 4.357 -28.349 85.815 29.073 37.147 -26.226zm128.333 -185.364l-0.34 -0.354c-5.217,-5.441 -10.554,-9.289 -16.012,-11.548 -5.458,-2.258 -11.291,-3.191 -17.44,-2.856 -6.149,0.335 -12.7,1.85 -19.593,4.486 -6.892,2.638 -14.296,6.163 -22.181,10.546 -6.683,3.686 -12.28,6.669 -16.819,8.978 -4.509,2.282 -8.336,3.795 -11.511,4.569 -3.144,0.745 -5.81,0.748 -7.997,0.007 -2.186,-0.741 -4.243,-2.117 -6.171,-4.128l-0.34 -0.355c-2.949,-3.075 -4.086,-6.923 -3.409,-11.544 0.675,-4.622 3.675,-9.484 8.997,-14.588 5.321,-5.103 11.692,-9.114 19.113,-12.03 7.42,-2.916 15.724,-5.147 24.911,-6.694l-5.543 -34.188c-11.264,1.04 -22.013,3.857 -32.25,8.452 -10.237,4.596 -19.908,11.26 -29.015,19.994 -6.386,6.124 -11.389,12.625 -14.98,19.475 -3.591,6.85 -5.735,13.787 -6.374,20.757 -0.638,6.968 0.176,13.736 2.415,20.331 2.267,6.567 6.109,12.702 11.553,18.378l0.34 0.355c5.898,6.15 11.806,10.359 17.728,12.627 5.921,2.267 12.017,3.062 18.231,2.438 6.213,-0.623 12.799,-2.456 19.7,-5.44 6.929,-3.014 14.25,-6.743 22.022,-11.246 6.452,-3.689 11.9,-6.531 16.286,-8.467 4.387,-1.936 8.063,-3.192 11.061,-3.796 2.966,-0.575 5.428,-0.494 7.382,0.242 1.955,0.737 3.783,1.991 5.484,3.765l0.34 0.355c3.516,3.666 4.7,8.037 3.551,13.112 -1.149,5.076 -4.562,10.334 -10.239,15.779 -7.096,6.805 -14.934,11.712 -23.516,14.719 -8.579,3.008 -17.921,4.928 -28.021,5.759l2.401 34.818c13.915,-0.404 26.987,-3.347 39.212,-8.828 12.225,-5.481 23.068,-12.758 32.529,-21.832 6.741,-6.465 12.069,-13.22 15.953,-20.237 3.885,-7.018 6.292,-14.094 7.165,-21.174 0.872,-7.08 0.12,-14.079 -2.226,-21.023 -2.377,-6.916 -6.499,-13.464 -12.397,-19.614zm144.004 -85.628l-25.359 -22.154 -61.449 70.34 -27.21 -23.771 53.363 -61.084 -25.359 -22.155 -53.364 61.085 -26.285 -22.963 60.641 -69.414 -25.359 -22.154 -85.22 97.55 129.572 113.196 86.029 -98.476zm120.41 -167.15l-140.317 -99.566 -23.611 33.275 33.162 78.986 -85.505 -5.22 -23.612 33.276 140.317 99.566 21.62 -30.468 -91.006 -64.576 87.07 3.014 0.57 -0.803 -31.915 -82.017 91.607 65.002 21.62 -30.469zm21.042 -201.672l-86.239 -44.595 -17.387 33.623 87.549 45.272c12.226,6.323 19.891,13.975 22.993,22.959 3.102,8.983 1.983,18.642 -3.361,28.976 -5.344,10.334 -12.688,16.775 -22.03,19.323 -9.342,2.548 -20.272,0.586 -32.789,-5.887l-86.458 -44.708 -17.386 33.621 87.331 45.16c22.56,11.666 42.565,14.54 60.015,8.621 17.449,-5.918 31.481,-19.139 42.093,-39.662 5.268,-10.188 8.628,-20.165 10.081,-29.928 1.452,-9.764 0.809,-19.045 -1.931,-27.84 -2.738,-8.794 -7.592,-16.977 -14.561,-24.547 -6.97,-7.57 -16.276,-14.366 -27.92,-20.388zm144.206 -156.592l-188.228 5.833 -12.665 32.523 134.715 131.589 14.002 -35.959 -30.25 -28.661 26.399 -67.794 41.667 -0.657 14.36 -36.874zm-92.081 37.998l-16.589 42.601 -43.698 -41.546 60.287 -1.055z"/>
  <polygon class="fil0 str0" points="416.734,1904.953 434.91,1961.263 494.082,1961.151 446.144,1995.838 464.538,2052.079 416.734,2017.207 368.93,2052.079 387.324,1995.838 339.386,1961.151 398.557,1961.263 "/>
  <polygon class="fil0 str0" points="3575.137,1904.953 3593.313,1961.263 3652.485,1961.151 3604.547,1995.838 3622.941,2052.079 3575.137,2017.207 3527.333,2052.079 3545.726,1995.838 3497.789,1961.151 3556.96,1961.263 "/>
 </g>
</svg>
