<svg xmlns="http://www.w3.org/2000/svg" width="1556" height="366"><clipPath id="a"><path d="M1918.67-476.24v7290.73h-5161V-476.24z"/></clipPath><g clip-path="url(#a)"><path fill="#253f7a" fill-rule="evenodd" d="m544.1 135.1 5.2 1.7v23l-9.1-2.6c-10.8-3.5-20.8-4.8-31.6-4.8-26 0-42.5 8.7-42.5 50.6 0 42 16.5 50.7 42.5 50.7 10.8 0 20.8-1.7 31.6-4.8l9.1-2.6v23l-5.2 1.3c-12.1 3.5-23.4 4.8-36.4 4.8-45 0-65-22.1-65-72.4 0-50.2 20-72.7 65-72.7 13 0 24.3 1.7 36.4 4.8m110.1 73.1v65h-23.4v-65c0-15.5-4.3-20.3-19.1-20.3-17.7 0-23.4 5.2-23.4 22.1v63.2h-23.4V126.9h23.4V171q10-5.2 24.7-5.2c28.2 0 41.2 13.4 41.2 42.4m103.1-2.6v67.6h-21.2v-2.6q-10 4.8-25.6 4.8c-27.3 0-41.1-10.9-41.1-33 0-32.9 32-32.9 42.9-32.9q11.7 0 22.1 2.2v-6.5c0-12.1-3.5-17.7-22.6-17.7q-13 0-25.1 4.3l-9.5 3v-22.9l4.7-1.3c9.6-3.1 19.5-4.8 30.8-4.8 30.3 0 44.6 13 44.6 39.8m-22.9 27.3q-9.6-2.6-21.3-2.6c-20.8 0-20.8 5.7-20.8 12.1 0 4.8 0 11.7 19.5 11.7 20.8 0 22.6-6.9 22.6-16zm133-24.7v65H844v-65c0-15.5-4.3-20.3-19.1-20.3-18.2 0-23.4 5.2-23.4 22.1v63.2h-23.4V168.4h21.3v3.5q10.8-6.1 26.8-6.1c28.2 0 41.2 13.4 41.2 42.4m88-81.4h23.4v146.4h-21.7v-3c-6.9 3.4-15.6 5.1-26.9 5.1-41.6 0-46.3-31.1-46.3-54.5 0-48.9 26.4-55 46.3-55 10.4 0 18.7 1.7 25.2 4.8zm0 82.7c0-16.5-5.7-21.7-23.4-21.7-16.1 0-24.3 5.2-24.3 33.4 0 27.7 8.2 32.9 24.3 32.9 17.7 0 23.4-5.2 23.4-21.7zm98.8-42.8 6.5.8V190l-8.3-1.3q-3-.4-6.9-.4c-16.9 0-22.5 6.1-22.5 24.2v61.1h-23.4V168.8h21.2v3q10-5.6 24.7-5.6c3.9 0 6.9.5 8.7.5m100.5 39.3v67.6h-21.2l-.5-2.6q-9.9 4.8-25.1 4.8c-27.7 0-41.6-10.9-41.6-33 0-32.9 32.5-32.9 42.9-32.9q12.1 0 22.1 2.2v-6.5c0-12.1-3-17.7-22.1-17.7q-13 0-25.6 4.3l-9.1 3v-22.9l4.8-1.3c9.5-3.1 19.5-4.8 30.8-4.8 30.3 0 44.6 13 44.6 39.8m-23.4 27.3q-9.5-2.6-20.8-2.6c-20.8 0-20.8 5.7-20.8 12.1 0 4.8 0 11.7 19.5 11.7 20.8 0 22.1-6.9 22.1-16zm166-100 54.6 140.3h-24.7l-14.3-36.4h-51.6l-13.9 36.4h-25.1l54.6-140.3zm7.8 82.3-18.2-46.4-17.8 46.4zm135.7 27.7c0 28.6-26.5 32.9-42.5 32.9q-17.5 0-32.5-5.2l-4.8-1.7v-22.6l9.6 3.1c9.1 3 17.7 4.7 27.3 4.7 19.5 0 19.5-7.3 19.5-11.2 0-7-4.8-9.1-20.8-12.1-15.6-3.1-36.9-7.8-36.9-32.9 0-14.3 7.4-32.1 41.6-32.1 11.7 0 21.3 1.7 29.9 4.3l4.8 1.8v22.5l-9.5-3c-7.8-2.6-16.1-3.9-24.3-3.9-18.6 0-18.6 6.9-18.6 10.4 0 6.4 4.3 8.2 19.9 11.6 14.7 3.1 37.3 7.4 37.3 33.4m69.7-76.7 6.5.9V190l-8.2-1.3q-3.5-.4-6.9-.4c-17.4 0-23 6.1-23 24.2v61.1h-23.4V168.8h21.7v3q9.5-5.6 24.7-5.6c3.4 0 6.5.4 8.6.4m42.1 2.2v104.8h-23.4V168.8zm-11.5-7.8c-7.8 0-14.1-6.2-14.1-13.8 0-7.7 6.3-13.9 14.1-13.9s14.1 6.2 14.1 13.9c0 7.6-6.3 13.8-14.1 13.8M183.7 365.8c-33.4 0-64.6-8.7-91.5-24.2 14.8 4.3 35.1 7.3 56.8 4.3 43.8-6.9 69.8-21.7 82.8-24.3 18.6-3.4 55-2.1 78.8-6.9-32.9 31.6-77.5 51.1-126.9 51.1"/><path fill="#2e77b9" d="M327 258.9c-25.5 14.7-37.2 11.3-69.3 9.1-29.5-1.7-49.8-4.3-71.5-1.7-17.3 1.7-33.8 11.2-81.5 16.4-41.6 4.8-74.9-17.3-90.1-29.4 9.5 22.9 23.8 43.7 42 60.6 10.4 8.6 18.2 11.2 18.2 11.2 42.9 26 87.6 8.7 102.7 5.7 14.8-3.1 39.5-16.1 48.6-18.2 15.1-3.9 43.7-2.6 68.4-3 12.2-.5 20-3.1 27.3-7 17.8-20.8 31.2-45.4 38.6-72.7-7.4 8.2-20.4 21.6-33.4 29"/><path fill="#4fbed4" d="M8.5 236.4c4.8 3.9 10.9 9.1 16.5 14.3 18.2 16 58.1 24.7 78 24.7 19.1 0 59.4-14.3 71.9-16.5 15.2-2.6 57.7 0 57.7 0 51.1 7.4 82.3-3.9 82.3-3.9 26.9-12.6 42.5-32.5 49.8-45.5q2.2-12.9 2.2-26.8-.4-20.3-4.3-39c-2.6 3.9-7.4 11.3-16.5 24.7-21.2 30.8-64.1 44.6-99.2 52.8-35.1 7.8-68.9-8.6-98-20.3-29-11.7-58.9-13.4-97-11.7-30.8 1.3-46-16.5-50.7-23.4q-.9 8.2-.9 16.9c0 18.6 3 36.8 8.2 53.7"/><path fill="#253f7a" d="M67 178.4c28.2.4 49.9 1.3 67.6 6.5 17.8 5.6 58.1 23.3 82.8 27.2 25.1 3.5 51.6-5.2 85.4-22 25.1-12.6 48.9-47.2 56.3-59.4-4.3-14.7-10.4-28.5-18.2-41.1-23.4 23.4-41.6 33.8-69.3 39.4-29.1 5.6-29.5 7.8-72 12.1-41.1 3.9-60.6-6-106.1-29-36.4-18.6-59.4-22.5-67.2-22.9-11.7 19.5-19.9 41.1-23.8 64.5 27.7 21.6 37.2 24.2 64.5 24.7"/><path fill="#2e77b9" d="M143.3 126c25.6 9.1 42.5 7.3 52.4 6 10.4-1.7 36-7.3 52.9-10.3 16.5-2.6 38.1-3.9 54.2-14.3 15.1-9.6 28.6-21.2 33.8-25.1q-11.7-17.8-26.9-32.1c-6.9 5.6-24.3 13.4-37.7 15.2-15.2 2.1-31.2-2.6-61.1-10-29.5-6.9-53.7-.8-53.7-.8-35.6 11.2-55.1 9-55.1 9C87 63.6 67 50.7 61.4 46.8c-11.3 9.5-20.8 20.7-29 32.9 16 3 48.5 14.7 63.2 21.6 15.6 7.4 34.7 19.9 47.7 24.7"/><path fill="#4fbed4" d="M158.5 43.7c25.5-5.2 57.2 2.6 57.2 2.6 35.5 10 39.4 10.4 39.4 10.4 22.1 4.8 42.5-9.9 46.8-13.4C269.8 16.5 228.7 0 183.6 0 139.8 0 100 15.2 68.8 40.7c4.3 3.5 17.7 12.1 38.5 13 13 .4 35.1-6.9 51.2-10"/></g></svg>